<svg xmlns="http://www.w3.org/2000/svg" xmlns:xlink="http://www.w3.org/1999/xlink" width="500" zoomAndPan="magnify" viewBox="0 0 375 374.999991" height="500" preserveAspectRatio="xMidYMid meet" version="1.0"><defs><clipPath id="id1"><path d="M 138.773438 45 L 236.273438 45 L 236.273438 329.945312 L 138.773438 329.945312 Z M 138.773438 45 " clip-rule="nonzero"/></clipPath></defs><path fill="rgb(73.728943%, 89.019775%, 100%)" d="M 187.359375 11.484375 C 90.226562 11.484375 11.484375 90.226562 11.484375 187.359375 C 11.484375 284.492188 90.226562 363.234375 187.359375 363.234375 C 284.492188 363.234375 363.234375 284.492188 363.234375 187.359375 C 363.234375 90.226562 284.492188 11.484375 187.359375 11.484375 " fill-opacity="1" fill-rule="nonzero"/><g clip-path="url(#id1)"><path fill="rgb(32.159424%, 44.309998%, 100%)" d="M 177.539062 329.679688 L 201.007812 329.679688 C 203.472656 329.679688 205.863281 328.578125 207.457031 326.558594 C 207.46875 326.546875 207.480469 326.535156 207.492188 326.523438 C 224.980469 304.445312 236.273438 261.921875 236.273438 201.675781 C 236.273438 128.882812 196.222656 56.621094 188.726562 45.964844 C 188.125 45.109375 186.917969 45.109375 186.316406 45.964844 C 178.820312 56.621094 138.773438 128.882812 138.773438 201.675781 C 138.773438 263.640625 152.75 305.570312 171.046875 326.523438 C 171.144531 326.636719 171.234375 326.738281 171.335938 326.847656 C 172.941406 328.664062 175.195312 329.679688 177.539062 329.679688 Z M 177.539062 329.679688 " fill-opacity="1" fill-rule="nonzero"/></g><path fill="rgb(32.159424%, 44.309998%, 100%)" d="M 221.179688 116.945312 C 216.335938 102.320312 210.914062 89.089844 205.863281 78.078125 L 205.863281 328.085938 C 206.441406 327.664062 206.988281 327.160156 207.457031 326.570312 C 207.46875 326.558594 207.480469 326.546875 207.492188 326.535156 C 212.632812 320.039062 217.242188 311.757812 221.1875 301.792969 L 221.1875 116.945312 Z M 221.179688 116.945312 " fill-opacity="1" fill-rule="nonzero"/><path fill="rgb(32.159424%, 44.309998%, 100%)" d="M 170.8125 74.589844 C 166.773438 83.148438 162.421875 93.226562 158.273438 104.394531 L 158.273438 306.875 C 162.085938 314.597656 166.316406 321.050781 170.8125 326.246094 Z M 170.8125 74.589844 " fill-opacity="1" fill-rule="nonzero"/><path fill="rgb(100%, 100%, 100%)" d="M 188.726562 45.964844 C 189.160156 57.078125 189.328125 68.203125 189.628906 79.316406 C 189.832031 90.429688 190.007812 101.550781 190.109375 112.664062 C 190.253906 123.777344 190.253906 134.902344 190.320312 146.015625 L 190.289062 179.363281 L 190.019531 212.710938 C 189.851562 223.824219 189.765625 234.949219 189.507812 246.0625 C 189.308594 257.175781 189.027344 268.285156 188.726562 279.410156 C 188.3125 290.523438 188.058594 301.636719 187.511719 312.75 C 187.0625 301.636719 186.910156 290.511719 186.597656 279.398438 C 186.394531 268.285156 186.214844 257.164062 186.117188 246.050781 C 185.960938 234.9375 185.972656 223.8125 185.902344 212.703125 L 185.9375 179.351562 L 186.207031 146.003906 C 186.371094 134.890625 186.472656 123.765625 186.71875 112.652344 C 186.917969 101.539062 187.199219 90.429688 187.5 79.304688 C 187.921875 68.191406 188.179688 57.078125 188.726562 45.964844 Z M 188.726562 45.964844 " fill-opacity="1" fill-rule="nonzero"/><path fill="rgb(100%, 100%, 100%)" d="M 188.070312 318.121094 C 188.089844 321.988281 192.652344 323.972656 195.542969 321.398438 C 202.773438 314.976562 213.714844 300.542969 221.078125 269.042969 C 221.667969 266.527344 219.527344 264.253906 216.960938 264.597656 C 210.023438 265.523438 197.148438 260.652344 187.511719 238.617188 Z M 188.070312 318.121094 " fill-opacity="1" fill-rule="nonzero"/></svg>